<?xml version="1.0" encoding="UTF-8"?>
<svg width="20" height="20" viewBox="0 0 20 20" fill="none" xmlns="http://www.w3.org/2000/svg">
  <path d="M19.8055 10.2275C19.8055 9.51508 19.7516 8.83508 19.6363 8.17749H10.2002V11.8725H15.6002C15.3863 13.0725 14.7002 14.1225 13.6502 14.8075V17.2075H16.8502C18.7447 15.4725 19.8055 13.0725 19.8055 10.2275Z" fill="#4285F4"/>
  <path d="M10.2002 20C12.9002 20 15.1502 19.1 16.8502 17.2075L13.6502 14.8075C12.7502 15.4075 11.5863 15.7725 10.2002 15.7725C7.59469 15.7725 5.38516 14.0375 4.59469 11.7075H1.29517V14.1725C3.04517 17.6725 6.39469 20 10.2002 20Z" fill="#34A853"/>
  <path d="M4.59473 11.7075C4.19473 10.5075 4.19473 9.19749 4.59473 7.99749V5.53249H1.29521C0.0447266 8.23249 0.0447266 11.4725 1.29521 14.1725L4.59473 11.7075Z" fill="#FBBC04"/>
  <path d="M10.2002 4.22751C11.6252 4.20751 13.0002 4.73751 14.0502 5.73751L16.8902 2.89751C15.0902 1.19751 12.6902 0.227512 10.2002 0.247512C6.39469 0.247512 3.04517 2.57501 1.29517 6.07501L4.59469 8.54001C5.38516 6.21001 7.59469 4.47501 10.2002 4.22751Z" fill="#EA4335"/>
</svg> 