<?xml version="1.0" encoding="UTF-8"?>
<svg width="32" height="32" viewBox="0 0 32 32" fill="none" xmlns="http://www.w3.org/2000/svg">
  <circle cx="16" cy="16" r="16" fill="#660566"/>
  <path d="M16 6C10.477 6 6 10.477 6 16C6 21.523 10.477 26 16 26C21.523 26 26 21.523 26 16C26 10.477 21.523 6 16 6ZM19.5 17.5L17 17.5L17 21C17 21.552 16.552 22 16 22C15.448 22 15 21.552 15 21L15 17.5L12.5 17.5C11.948 17.5 11.5 17.052 11.5 16.5L11.5 12C11.5 11.448 11.948 11 12.5 11L15 11L15 7.5C15 6.948 15.448 6.5 16 6.5C16.552 6.5 17 6.948 17 7.5L17 11L19.5 11C20.052 11 20.5 11.448 20.5 12L20.5 16.5C20.5 17.052 20.052 17.5 19.5 17.5Z" fill="white"/>
</svg> 